<svg width="814" height="713" viewBox="0 0 814 713" fill="none" xmlns="http://www.w3.org/2000/svg">
<path d="M581.074 470.521C675.344 385.205 705.565 264.993 648.574 202.021C591.583 139.049 468.961 157.163 374.691 242.479C280.421 327.795 250.2 448.007 307.191 510.979C364.182 573.951 486.804 555.837 581.074 470.521Z" fill="url(#paint0_linear_1_2)"/>
<path d="M482.516 212.461H465.716V239.631H482.516V212.461Z" fill="#00B3E3"/>
<path d="M517.612 247.735C517.612 239.87 511.132 233.435 503.213 233.435H445.019C437.1 233.435 430.62 239.87 430.62 247.735V268.723C430.62 276.588 437.1 283.024 445.019 283.024H503.213C511.132 283.024 517.612 276.588 517.612 268.723V247.735Z" fill="#0071CE"/>
<path d="M538.451 427.113C538.451 411.947 523.313 382.071 523.313 362.407C523.313 342.742 538.451 330.114 538.451 314.947V275.873C538.451 264.076 528.731 254.423 516.852 254.423H431.38C419.501 254.423 409.782 264.076 409.782 275.873V314.947C409.782 330.114 424.919 342.742 424.919 362.407C424.919 382.072 409.782 411.947 409.782 427.113V466.187C409.782 477.985 419.501 487.637 431.38 487.637H516.852C528.731 487.637 538.451 477.985 538.451 466.187V427.113Z" fill="#00B3E3"/>
<path d="M409.782 454.375V466.187C409.782 477.985 419.501 487.637 431.38 487.637H516.852C528.731 487.637 538.451 477.985 538.451 466.187V454.375H409.782Z" fill="#0071CE"/>
<path d="M447.058 372.877L477.537 309.718V353.095L501.176 361.407L470.697 424.567V380.028L447.058 372.877Z" fill="#FFC843"/>
<path d="M432.78 392.287H421.12C418.138 392.287 415.721 389.886 415.721 386.925C415.721 383.963 418.138 381.562 421.12 381.562H432.78C435.762 381.562 438.18 383.963 438.18 386.925C438.18 389.887 435.762 392.287 432.78 392.287Z" fill="#0071CE"/>
<path d="M432.78 408.971H415.06C412.078 408.971 409.66 406.57 409.66 403.609C409.66 400.647 412.078 398.246 415.06 398.246H432.78C435.762 398.246 438.18 400.647 438.18 403.609C438.18 406.57 435.762 408.971 432.78 408.971Z" fill="#0071CE"/>
<path d="M432.78 425.655H410.702C407.72 425.655 405.302 423.254 405.302 420.292C405.302 417.331 407.72 414.93 410.702 414.93H432.78C435.762 414.93 438.18 417.331 438.18 420.292C438.18 423.254 435.762 425.655 432.78 425.655Z" fill="#0071CE"/>
<path d="M432.78 324.123H411.222C408.239 324.123 405.822 321.722 405.822 318.76C405.822 315.798 408.239 313.397 411.222 313.397H432.78C435.762 313.397 438.18 315.798 438.18 318.76C438.18 321.722 435.762 324.123 432.78 324.123Z" fill="#0071CE"/>
<path d="M432.78 340.806H417.52C414.538 340.806 412.121 338.405 412.121 335.443C412.121 332.482 414.538 330.081 417.52 330.081H432.78C435.762 330.081 438.18 332.482 438.18 335.443C438.18 338.405 435.762 340.806 432.78 340.806Z" fill="#0071CE"/>
<path d="M432.78 357.49H423.946C420.964 357.49 418.546 355.089 418.546 352.128C418.546 349.166 420.964 346.765 423.946 346.765H432.78C435.762 346.765 438.18 349.166 438.18 352.128C438.18 355.089 435.762 357.49 432.78 357.49Z" fill="#0071CE"/>
<path d="M527.112 392.287H515.452C512.47 392.287 510.052 389.886 510.052 386.925C510.052 383.963 512.47 381.562 515.452 381.562H527.112C530.094 381.562 532.512 383.963 532.512 386.925C532.512 389.887 530.094 392.287 527.112 392.287Z" fill="#0071CE"/>
<path d="M533.173 408.971H515.453C512.471 408.971 510.053 406.57 510.053 403.609C510.053 400.647 512.471 398.246 515.453 398.246H533.173C536.155 398.246 538.573 400.647 538.573 403.609C538.573 406.57 536.155 408.971 533.173 408.971Z" fill="#0071CE"/>
<path d="M537.531 425.655H515.452C512.47 425.655 510.052 423.254 510.052 420.292C510.052 417.331 512.47 414.93 515.452 414.93H537.531C540.513 414.93 542.931 417.331 542.931 420.292C542.931 423.254 540.513 425.655 537.531 425.655Z" fill="#0071CE"/>
<path d="M537.011 324.123H515.452C512.47 324.123 510.052 321.722 510.052 318.76C510.052 315.798 512.47 313.397 515.452 313.397H537.011C539.993 313.397 542.41 315.798 542.41 318.76C542.41 321.722 539.993 324.123 537.011 324.123Z" fill="#0071CE"/>
<path d="M530.712 340.806H515.453C512.471 340.806 510.053 338.405 510.053 335.443C510.053 332.482 512.471 330.081 515.453 330.081H530.712C533.695 330.081 536.112 332.482 536.112 335.443C536.112 338.405 533.695 340.806 530.712 340.806Z" fill="#0071CE"/>
<path d="M524.287 357.49H515.452C512.47 357.49 510.052 355.089 510.052 352.128C510.052 349.166 512.47 346.765 515.452 346.765H524.287C527.269 346.765 529.687 349.166 529.687 352.128C529.687 355.089 527.269 357.49 524.287 357.49Z" fill="#0071CE"/>
<path d="M502.978 356.353L482.936 349.305V309.718C482.936 307.214 481.192 305.043 478.733 304.489C476.275 303.933 473.757 305.143 472.668 307.401L442.189 370.56C441.509 371.97 441.482 373.604 442.115 375.035C442.749 376.466 443.979 377.552 445.485 378.008L465.298 384V424.567C465.298 427.071 467.042 429.242 469.501 429.796C469.901 429.886 470.302 429.931 470.7 429.931C472.741 429.931 474.655 428.775 475.568 426.885L506.046 363.725C506.709 362.353 506.753 360.766 506.167 359.36C505.581 357.954 504.422 356.86 502.978 356.353ZM476.097 400.97V380.028C476.097 377.668 474.543 375.585 472.27 374.897L454.644 369.566L472.138 333.316V353.095C472.138 355.367 473.579 357.392 475.735 358.15L493.711 364.471L476.097 400.97ZM543.85 314.946V275.873C543.85 263.193 534.939 252.548 523.012 249.772V247.735C523.012 236.893 514.13 228.072 503.213 228.072H487.916V214.725H488.285C491.267 214.725 493.685 212.324 493.685 209.363C493.685 206.401 491.267 204 488.285 204H459.949C456.967 204 454.549 206.401 454.549 209.363C454.549 212.324 456.967 214.725 459.949 214.725H460.317V228.072H445.02C434.103 228.072 425.221 236.893 425.221 247.735V249.772C413.294 252.549 404.383 263.193 404.383 275.873V314.946C404.383 323.31 408.149 330.75 411.792 337.945C415.591 345.449 419.52 353.209 419.52 362.406C419.52 372.042 415.428 384.785 411.471 397.109C407.826 408.462 404.383 419.187 404.383 427.113V466.186C404.383 480.971 416.494 492.999 431.381 492.999H516.852C531.74 492.999 543.851 480.971 543.851 466.186V427.113C543.851 419.188 540.407 408.463 536.762 397.109C532.805 384.786 528.714 372.042 528.714 362.407C528.714 353.209 532.643 345.449 536.442 337.945C540.084 330.75 543.85 323.31 543.85 314.946ZM471.116 214.725H477.116V228.072H471.116V214.725ZM436.02 247.735C436.02 242.807 440.057 238.798 445.019 238.798H503.213C508.175 238.798 512.212 242.807 512.212 247.735V249.06H436.02V247.735ZM533.051 466.187C533.051 475.058 525.784 482.275 516.852 482.275H431.38C422.448 482.275 415.181 475.058 415.181 466.187V459.737H533.051V466.187ZM533.051 314.946C533.051 320.766 530.151 326.494 526.793 333.127C522.631 341.347 517.914 350.664 517.914 362.407C517.914 373.711 522.265 387.262 526.473 400.368C529.856 410.904 533.051 420.856 533.051 427.113V449.012H415.181V427.113C415.181 420.856 418.377 410.904 421.76 400.368C425.968 387.262 430.319 373.711 430.319 362.407C430.319 350.665 425.601 341.347 421.439 333.127C418.081 326.494 415.181 320.766 415.181 314.946V275.873C415.181 267.001 422.448 259.785 431.38 259.785H516.852C525.784 259.785 533.051 267.001 533.051 275.873V314.946Z" fill="black"/>
<defs>
<linearGradient id="paint0_linear_1_2" x1="583.582" y1="163.205" x2="49.787" y2="736.41" gradientUnits="userSpaceOnUse">
<stop stop-color="#FF56D0"/>
<stop offset="1" stop-color="#BC1BE5" stop-opacity="0"/>
</linearGradient>
</defs>
</svg>
