<svg width="814" height="713" viewBox="0 0 814 713" fill="none" xmlns="http://www.w3.org/2000/svg">
<path d="M447.465 187.877C484.081 154.672 495.82 107.886 473.683 83.3769C451.546 58.8682 403.917 65.918 367.301 99.1231C330.684 132.328 318.945 179.114 341.082 203.623C363.219 228.132 410.848 221.082 447.465 187.877Z" fill="url(#paint0_linear_1_2)"/>
<path d="M409.182 87.44H402.657V98.0148H409.182V87.44Z" fill="#00B3E3"/>
<path d="M422.814 101.169C422.814 98.1078 420.298 95.6032 417.221 95.6032H394.618C391.542 95.6032 389.025 98.1078 389.025 101.169V109.337C389.025 112.398 391.542 114.903 394.618 114.903H417.221C420.298 114.903 422.814 112.398 422.814 109.337V101.169Z" fill="#0071CE"/>
<path d="M430.909 170.983C430.909 165.08 425.029 153.452 425.029 145.799C425.029 138.146 430.909 133.23 430.909 127.328V112.12C430.909 107.528 427.133 103.772 422.519 103.772H389.32C384.706 103.772 380.931 107.528 380.931 112.12V127.328C380.931 133.23 386.81 138.146 386.81 145.799C386.81 153.453 380.931 165.08 380.931 170.983V186.19C380.931 190.782 384.706 194.539 389.32 194.539H422.519C427.133 194.539 430.909 190.782 430.909 186.19V170.983Z" fill="#00B3E3"/>
<path d="M380.931 181.593V186.19C380.931 190.782 384.706 194.539 389.32 194.539H422.519C427.133 194.539 430.909 190.782 430.909 186.19V181.593H380.931Z" fill="#0071CE"/>
<path d="M395.409 149.874L407.248 125.292V142.175L416.43 145.41L404.592 169.992V152.657L395.409 149.874Z" fill="#FFC843"/>
<path d="M389.864 157.428H385.335C384.176 157.428 383.237 156.494 383.237 155.341C383.237 154.189 384.176 153.254 385.335 153.254H389.864C391.022 153.254 391.961 154.189 391.961 155.341C391.961 156.494 391.022 157.428 389.864 157.428Z" fill="#0071CE"/>
<path d="M389.864 163.922H382.981C381.822 163.922 380.883 162.987 380.883 161.835C380.883 160.682 381.822 159.748 382.981 159.748H389.864C391.022 159.748 391.961 160.682 391.961 161.835C391.961 162.987 391.022 163.922 389.864 163.922Z" fill="#0071CE"/>
<path d="M389.864 170.415H381.288C380.13 170.415 379.191 169.481 379.191 168.328C379.191 167.175 380.13 166.241 381.288 166.241H389.864C391.022 166.241 391.961 167.175 391.961 168.328C391.961 169.481 391.022 170.415 389.864 170.415Z" fill="#0071CE"/>
<path d="M389.864 130.899H381.49C380.331 130.899 379.392 129.964 379.392 128.812C379.392 127.659 380.331 126.724 381.49 126.724H389.864C391.022 126.724 391.961 127.659 391.961 128.812C391.961 129.964 391.022 130.899 389.864 130.899Z" fill="#0071CE"/>
<path d="M389.864 137.392H383.936C382.778 137.392 381.839 136.457 381.839 135.305C381.839 134.152 382.778 133.218 383.936 133.218H389.864C391.022 133.218 391.961 134.152 391.961 135.305C391.961 136.457 391.022 137.392 389.864 137.392Z" fill="#0071CE"/>
<path d="M389.864 143.885H386.432C385.274 143.885 384.335 142.951 384.335 141.798C384.335 140.646 385.274 139.711 386.432 139.711H389.864C391.022 139.711 391.961 140.646 391.961 141.798C391.961 142.951 391.022 143.885 389.864 143.885Z" fill="#0071CE"/>
<path d="M426.504 157.428H421.975C420.817 157.428 419.878 156.494 419.878 155.341C419.878 154.189 420.817 153.254 421.975 153.254H426.504C427.663 153.254 428.602 154.189 428.602 155.341C428.602 156.494 427.663 157.428 426.504 157.428Z" fill="#0071CE"/>
<path d="M428.859 163.922H421.976C420.817 163.922 419.878 162.987 419.878 161.835C419.878 160.682 420.817 159.748 421.976 159.748H428.859C430.017 159.748 430.956 160.682 430.956 161.835C430.956 162.987 430.017 163.922 428.859 163.922Z" fill="#0071CE"/>
<path d="M430.552 170.415H421.975C420.817 170.415 419.878 169.481 419.878 168.328C419.878 167.175 420.817 166.241 421.975 166.241H430.552C431.71 166.241 432.649 167.175 432.649 168.328C432.649 169.481 431.71 170.415 430.552 170.415Z" fill="#0071CE"/>
<path d="M430.349 130.899H421.975C420.817 130.899 419.878 129.964 419.878 128.812C419.878 127.659 420.817 126.724 421.975 126.724H430.349C431.508 126.724 432.447 127.659 432.447 128.812C432.447 129.964 431.508 130.899 430.349 130.899Z" fill="#0071CE"/>
<path d="M427.903 137.392H421.976C420.817 137.392 419.878 136.457 419.878 135.305C419.878 134.152 420.817 133.218 421.976 133.218H427.903C429.061 133.218 430 134.152 430 135.305C430 136.457 429.061 137.392 427.903 137.392Z" fill="#0071CE"/>
<path d="M425.407 143.885H421.975C420.817 143.885 419.878 142.951 419.878 141.798C419.878 140.646 420.817 139.711 421.975 139.711H425.407C426.565 139.711 427.504 140.646 427.504 141.798C427.504 142.951 426.565 143.885 425.407 143.885Z" fill="#0071CE"/>
<path d="M417.13 143.443L409.346 140.7V125.292C409.346 124.318 408.668 123.473 407.713 123.257C406.758 123.041 405.78 123.512 405.357 124.391L393.518 148.972C393.254 149.521 393.244 150.157 393.49 150.714C393.736 151.271 394.214 151.693 394.799 151.871L402.494 154.203V169.992C402.494 170.966 403.172 171.811 404.127 172.027C404.283 172.062 404.438 172.079 404.593 172.079C405.385 172.079 406.129 171.629 406.483 170.894L418.322 146.312C418.579 145.778 418.596 145.16 418.369 144.613C418.141 144.066 417.691 143.64 417.13 143.443ZM406.689 160.808V152.657C406.689 151.739 406.085 150.928 405.203 150.66L398.356 148.585L405.151 134.477V142.175C405.151 143.059 405.711 143.847 406.549 144.142L413.531 146.602L406.689 160.808ZM433.006 127.327V112.12C433.006 107.185 429.545 103.042 424.912 101.962V101.169C424.912 96.949 421.462 93.5161 417.221 93.5161H411.28V88.3214H411.423C412.581 88.3214 413.521 87.3869 413.521 86.2342C413.521 85.0816 412.581 84.1471 411.423 84.1471H400.417C399.258 84.1471 398.319 85.0816 398.319 86.2342C398.319 87.3869 399.258 88.3214 400.417 88.3214H400.56V93.5161H394.618C390.378 93.5161 386.928 96.949 386.928 101.169V101.962C382.295 103.042 378.833 107.185 378.833 112.12V127.327C378.833 130.583 380.297 133.478 381.711 136.278C383.187 139.199 384.713 142.219 384.713 145.799C384.713 149.549 383.124 154.508 381.587 159.305C380.171 163.724 378.833 167.898 378.833 170.982V186.19C378.833 191.944 383.538 196.625 389.32 196.625H422.519C428.302 196.625 433.006 191.944 433.006 186.19V170.983C433.006 167.898 431.669 163.724 430.253 159.305C428.716 154.509 427.127 149.549 427.127 145.799C427.127 142.219 428.653 139.199 430.128 136.279C431.543 133.478 433.006 130.583 433.006 127.327ZM404.754 88.3214H407.085V93.5161H404.754V88.3214ZM391.122 101.169C391.122 99.2507 392.69 97.6903 394.618 97.6903H417.221C419.149 97.6903 420.717 99.2507 420.717 101.169V101.685H391.122V101.169ZM428.811 186.19C428.811 189.643 425.989 192.451 422.519 192.451H389.32C385.85 192.451 383.028 189.643 383.028 186.19V183.68H428.811V186.19ZM428.811 127.327C428.811 129.592 427.685 131.822 426.381 134.403C424.764 137.603 422.932 141.229 422.932 145.799C422.932 150.199 424.622 155.473 426.256 160.573C427.57 164.674 428.811 168.547 428.811 170.983V179.506H383.028V170.983C383.028 168.547 384.269 164.674 385.583 160.573C387.218 155.473 388.908 150.199 388.908 145.799C388.908 141.229 387.075 137.603 385.459 134.403C384.154 131.822 383.028 129.592 383.028 127.327V112.12C383.028 108.667 385.85 105.859 389.32 105.859H422.519C425.989 105.859 428.811 108.667 428.811 112.12V127.327Z" fill="black"/>
<defs>
<linearGradient id="paint0_linear_1_2" x1="448.439" y1="68.2698" x2="240.657" y2="290.947" gradientUnits="userSpaceOnUse">
<stop stop-color="#FF56D0"/>
<stop offset="1" stop-color="#BC1BE5" stop-opacity="0"/>
</linearGradient>
</defs>
</svg>
